<svg width="21" height="22" viewBox="0 0 21 22" fill="none" xmlns="http://www.w3.org/2000/svg">
<path d="M12.8716 3.89L12.5616 1.44C12.5316 1.19 12.3216 1 12.0616 1H8.95157C8.70157 1 8.48157 1.19 8.45157 1.44L8.18157 3.59C8.16157 3.77 8.03157 3.93 7.86157 3.99C7.02157 4.3 6.22157 4.78 5.53157 5.4L3.25157 4.44C3.02157 4.34 2.75157 4.43 2.62157 4.65L1.06157 7.35C0.94157 7.57 1.00157 7.85 1.20157 8L3.17157 9.49C2.96157 10.5 2.96157 11.53 3.16157 12.51H3.17157L1.20157 14C1.00157 14.15 0.941571 14.43 1.07157 14.65L2.63157 17.35C2.76157 17.57 3.03157 17.66 3.26157 17.56L5.54157 16.6L5.53157 16.61C5.90157 16.94 6.32157 17.24 6.77157 17.5C7.22157 17.76 7.68157 17.97 8.16157 18.13V18.11L8.47157 20.56C8.48157 20.81 8.70157 21 8.95157 21H12.0716C12.3216 21 12.5316 20.81 12.5716 20.56L12.8416 18.41C12.8616 18.23 12.9916 18.07 13.1616 18.01C14.0016 17.7 14.8016 17.22 15.4916 16.6L17.7716 17.56C18.0016 17.66 18.2716 17.57 18.4016 17.35L19.9616 14.65C20.0916 14.43 20.0316 14.15 19.8316 14L17.8616 12.51C18.0716 11.5 18.0716 10.47 17.8716 9.49H17.8616L19.8116 8C20.0116 7.85 20.0716 7.57 19.9416 7.35L18.3816 4.65C18.2516 4.43 17.9816 4.34 17.7516 4.44L15.4816 5.4L15.4916 5.39C15.1216 5.06 14.7016 4.76 14.2516 4.5C13.8016 4.24 13.3416 4.03 12.8616 3.87" stroke="white" stroke-width="1.5" stroke-miterlimit="10" stroke-linecap="round" stroke-linejoin="round"/>
<path d="M10.5117 15C12.7209 15 14.5117 13.2091 14.5117 11C14.5117 8.79086 12.7209 7 10.5117 7C8.30258 7 6.51172 8.79086 6.51172 11C6.51172 13.2091 8.30258 15 10.5117 15Z" stroke="white" stroke-width="1.5" stroke-miterlimit="10" stroke-linecap="round" stroke-linejoin="round"/>
</svg>
