<svg width="60" height="60" viewBox="0 0 60 60" fill="none" xmlns="http://www.w3.org/2000/svg">
<path d="M60 30C60 26.0603 59.224 22.1593 57.7164 18.5195C56.2087 14.8797 53.999 11.5726 51.2132 8.7868C48.4274 6.00104 45.1203 3.79125 41.4805 2.28361C37.8407 0.775973 33.9397 -1.72208e-07 30 0C26.0603 1.72208e-07 22.1593 0.775973 18.5195 2.28361C14.8797 3.79126 11.5726 6.00104 8.7868 8.7868C6.00104 11.5726 3.79125 14.8797 2.28361 18.5195C0.775972 22.1593 -3.44416e-07 26.0603 0 30L30 30H60Z" fill="#FFF1CC"/>
<path d="M8 30C8 17.8497 17.8497 8 30 8V8C42.1503 8 52 17.8497 52 30V30C52 42.1503 42.1503 52 30 52V52C17.8497 52 8 42.1503 8 30V30Z" fill="#F5A621"/>
<path d="M24.2362 30.2578H36.2799" stroke="white" stroke-width="1.5" stroke-linecap="round" stroke-linejoin="round"/>
<path d="M30.2581 36.2798V24.2362" stroke="white" stroke-width="1.5" stroke-linecap="round" stroke-linejoin="round"/>
</svg>
