<svg width="24" height="24" viewBox="0 0 24 24" fill="none" xmlns="http://www.w3.org/2000/svg">
<path d="M21 14C17.472 14.96 14.367 15.21 12 15.21C8.373 15.21 5.304 14.63 3 14M16 7V4.5C16 3.67 15.4044 3 14.6667 3H9.33333C8.59556 3 8 3.67 8 4.5V7M20.1 21H3.9C3.405 21 3 20.5821 3 20.0714V7.92857C3 7.41786 3.405 7 3.9 7H20.1C20.595 7 21 7.41786 21 7.92857V20.0714C21 20.5821 20.595 21 20.1 21Z" stroke="#F5A621" stroke-width="1.5" stroke-linecap="round" stroke-linejoin="round"/>
<path d="M12.5 11H11.5V12H12.5V11Z" stroke="#F5A621" stroke-width="1.5" stroke-linecap="round" stroke-linejoin="round"/>
</svg>
