<svg width="24" height="24" viewBox="0 0 24 24" fill="none" xmlns="http://www.w3.org/2000/svg">
<circle cx="12" cy="12" r="9" stroke="#F5A621" stroke-width="1.5" stroke-linecap="round" stroke-linejoin="round"/>
<path d="M15 9.35418C14.4789 8.76377 13.7862 8.32838 13 8.12602M15 14.6458C14.4789 15.2362 13.7862 15.6716 13 15.874M11 6V8.12602M11 18V15.874M13 6V8.12602M13 18V15.874M13 15.874C12.6804 15.9562 12.3453 16 12 16C11.6547 16 11.3196 15.9562 11 15.874M11 15.874C9.27477 15.4299 8 13.8638 8 12C8 10.1362 9.27477 8.57006 11 8.12602M11 8.12602C11.3196 8.04375 11.6547 8 12 8C12.3453 8 12.6804 8.04375 13 8.12602" stroke="#F5A621" stroke-width="1.5" stroke-linecap="round" stroke-linejoin="round"/>
</svg>
