<svg width="24" height="24" viewBox="0 0 24 24" fill="none" xmlns="http://www.w3.org/2000/svg">
<path fill-rule="evenodd" clip-rule="evenodd" d="M17.9539 3.9594C18.1078 3.93056 18.25 4.04859 18.25 4.20512V5.2502H11.0697L17.9539 3.9594ZM19.75 4.20512V5.2502H20C20.9665 5.2502 21.75 6.0337 21.75 7.0002V12.0885C21.2844 11.7925 20.7816 11.5501 20.25 11.3698V7.0002C20.25 6.86212 20.1381 6.7502 20 6.7502H19H4C3.86193 6.7502 3.75 6.86212 3.75 7.0002V18.0002C3.75 18.1383 3.86193 18.2502 4 18.2502H11.0044C11.0225 18.7664 11.0965 19.2683 11.2205 19.7502H4C3.0335 19.7502 2.25 18.9667 2.25 18.0002V7.0002C2.25 6.98793 2.25013 6.97567 2.25038 6.9634L2.25091 6.94335L2.2514 6.92963C2.26639 6.54882 2.40118 6.16811 2.60664 5.86022C2.8221 5.53734 3.17954 5.20346 3.6775 5.1101L17.6775 2.4851C18.7545 2.28316 19.75 3.10938 19.75 4.20512Z" fill="#F5A621"/>
<path fill-rule="evenodd" clip-rule="evenodd" d="M13.75 18C13.75 15.6528 15.6528 13.75 18 13.75C20.3472 13.75 22.25 15.6528 22.25 18C22.25 20.3472 20.3472 22.25 18 22.25C15.6528 22.25 13.75 20.3472 13.75 18ZM18 12.25C14.8244 12.25 12.25 14.8244 12.25 18C12.25 21.1756 14.8244 23.75 18 23.75C21.1756 23.75 23.75 21.1756 23.75 18C23.75 14.8244 21.1756 12.25 18 12.25ZM18.75 15C18.75 14.5858 18.4142 14.25 18 14.25C17.5858 14.25 17.25 14.5858 17.25 15V17.25H15C14.5858 17.25 14.25 17.5858 14.25 18C14.25 18.4142 14.5858 18.75 15 18.75H17.25V21C17.25 21.4142 17.5858 21.75 18 21.75C18.4142 21.75 18.75 21.4142 18.75 21V18.75H21C21.4142 18.75 21.75 18.4142 21.75 18C21.75 17.5858 21.4142 17.25 21 17.25H18.75V15Z" fill="#F5A621"/>
</svg>
