<svg width="24" height="24" viewBox="0 0 24 24" fill="none" xmlns="http://www.w3.org/2000/svg">
<path fill-rule="evenodd" clip-rule="evenodd" d="M11.9278 20H12.0722C12.1116 19.9169 12.167 19.8397 12.2384 19.7732L17.25 15.0976L17.25 6.75H18.75L18.75 15.4215V15.4254V20.1429C18.75 21.0327 17.9226 21.5 17.25 21.5H6.75C6.07739 21.5 5.25 21.0327 5.25 20.1429V15.4252V15.4217V6.75H6.75L6.75 15.0976L11.7616 19.7732C11.833 19.8397 11.8884 19.9169 11.9278 20ZM5.40029 3.75C5.66943 3.25607 6.25212 3 6.75 3H17.25C17.7479 3 18.3306 3.25607 18.5997 3.75H5.40029ZM17.25 20H14.1941L17.25 17.149V20ZM9.80588 20L6.75 17.149L6.75 20H9.80588ZM10.1785 11.7501C10.1785 12.7561 10.9939 13.5716 11.9999 13.5716C13.0058 13.5716 13.8213 12.7561 13.8213 11.7501C13.8213 10.7442 13.0058 9.92871 11.9999 9.92871C10.9939 9.92871 10.1785 10.7442 10.1785 11.7501ZM11.9999 15.0716C10.1655 15.0716 8.67847 13.5845 8.67847 11.7501C8.67847 9.91577 10.1655 8.42871 11.9999 8.42871C13.8343 8.42871 15.3213 9.91577 15.3213 11.7501C15.3213 13.5845 13.8343 15.0716 11.9999 15.0716Z" fill="#CCD0D5"/>
<path d="M18 9.75H21C21.5523 9.75 22 9.30228 22 8.75V4.75C22 4.19772 21.5523 3.75 21 3.75H3C2.44772 3.75 2 4.19772 2 4.75V8.75C2 9.30228 2.44772 9.75 3 9.75H6" stroke="#CCD0D5" stroke-width="1.5" stroke-linecap="round"/>
<path d="M4 6.75H20" stroke="#CCD0D5" stroke-width="1.5" stroke-linecap="round"/>
</svg>
