<svg width="24" height="24" viewBox="0 0 24 24" fill="none" xmlns="http://www.w3.org/2000/svg">
<path d="M8.45213 12.6351C11.0256 12.6351 13.1117 10.5489 13.1117 7.97551C13.1117 5.40209 11.0256 3.31592 8.45213 3.31592C5.87871 3.31592 3.79254 5.40209 3.79254 7.97551C3.79254 10.5489 5.87871 12.6351 8.45213 12.6351Z" stroke="#CCD0D5" stroke-width="1.5" stroke-miterlimit="10"/>
<path d="M2 15.9863C2.72773 14.9511 3.69384 14.1063 4.81677 13.523C5.93969 12.9398 7.18646 12.6353 8.45182 12.6353C9.71717 12.6352 10.964 12.9396 12.0869 13.5228C13.2099 14.1059 14.1761 14.9507 14.9039 15.9858" stroke="#CCD0D5" stroke-width="1.5" stroke-linecap="round" stroke-linejoin="round"/>
<path d="M22 15C21.3232 13.9379 20.4246 13.0711 19.3803 12.4728C18.336 11.8744 17.1768 11.5621 16 11.5621C18.3932 11.5621 20.3333 9.42157 20.3333 6.78106C20.3333 4.14055 18.3932 2 16 2C14.4 2 13.6667 2.33333 13.5 2.5" stroke="#CCD0D5" stroke-width="1.5" stroke-linecap="round" stroke-linejoin="round"/>
<path d="M5.77778 21L4 19M4 19L5.77778 17M4 19L20 19M20 19L18.2222 17M20 19L18.2222 21" stroke="#CCD0D5" stroke-width="1.5" stroke-linecap="round" stroke-linejoin="round"/>
</svg>
