<svg width="24" height="24" viewBox="0 0 24 24" fill="none" xmlns="http://www.w3.org/2000/svg">
<path d="M12 13.8C16.9706 13.8 21 11.3823 21 8.4C21 5.41766 16.9706 3 12 3C7.02944 3 3 5.41766 3 8.4C3 11.3823 7.02944 13.8 12 13.8Z" stroke="#F5A621" stroke-width="1.5" stroke-linecap="round" stroke-linejoin="round"/>
<path d="M3 10.2002V15.6002C3 18.5825 7.02944 21.0002 12 21.0002C16.9706 21.0002 21 18.5825 21 15.6002V10.2002" stroke="#F5A621" stroke-width="1.5" stroke-linecap="round" stroke-linejoin="round"/>
<path d="M3 9V12C3 14.9823 7.02944 17.4 12 17.4C16.9706 17.4 21 14.9823 21 12V9" stroke="#F5A621" stroke-width="1.5" stroke-linecap="round" stroke-linejoin="round"/>
<path d="M16.5652 7.1046L15.3476 7.54493M9.2594 9.74657L8.04175 10.1869M8.85304 8.46804L9.46257 10.3858C9.55238 10.6684 9.79888 10.8814 10.1478 10.978C10.4968 11.0746 10.9196 11.0468 11.3233 10.9009C11.7269 10.7549 12.0784 10.5026 12.3003 10.1996C12.5223 9.89657 12.5965 9.56758 12.5067 9.28501L12.1003 8.00648C12.0105 7.72391 12.0847 7.39493 12.3067 7.0919C12.5286 6.78887 12.8801 6.53662 13.2837 6.39064C13.6874 6.24466 14.1102 6.21691 14.4592 6.3135C14.8081 6.41009 15.0546 6.62309 15.1444 6.90567L15.754 8.82345" stroke="#F5A621" stroke-width="1.5" stroke-linecap="round" stroke-linejoin="round"/>
</svg>
