<svg width="24" height="24" viewBox="0 0 24 24" fill="none" xmlns="http://www.w3.org/2000/svg">
<path d="M3 4.50078C3.79491 4.27682 4.62858 4.2258 5.44486 4.35116C6.26115 4.47652 7.04109 4.77535 7.73216 5.22752C8.42323 5.67969 9.00938 6.2747 9.45113 6.97248C9.89287 7.67026 10.18 8.4546 10.2931 9.27267C10.4061 10.0907 10.3426 10.9236 10.1068 11.715C9.87088 12.5065 9.46814 13.2382 8.92567 13.8609C8.38319 14.4836 7.71358 14.9828 6.96192 15.3249C6.21026 15.667 5.39401 15.8441 4.56816 15.8442" stroke="#F5A621" stroke-width="1.5" stroke-linecap="round" stroke-linejoin="round"/>
<path d="M4.8269 16C6.19991 15.9989 7.55293 16.3619 8.77142 17.0581C9.98991 17.7544 11.038 18.7635 11.8269 20" stroke="#F5A621" stroke-width="1.5" stroke-linecap="round" stroke-linejoin="round"/>
<path d="M13 16L21 16M21 16L19 14M21 16L19 18" stroke="#F5A621" stroke-width="1.5" stroke-linecap="round" stroke-linejoin="round"/>
<path d="M16 13V4M19 6.41693C18.75 5.66976 17.92 5.09363 16.87 4.9406C15.82 4.78757 14.72 5.07563 14.11 5.66076C14.03 5.73277 13.35 6.39892 13.67 7.12808C13.87 7.58718 14.38 7.83924 15.07 8.17231C15.82 8.5414 16.04 8.47838 17.17 8.95549C18.33 9.44159 18.52 9.67565 18.61 9.80167C18.95 10.3058 18.72 10.8099 18.67 10.8999C18.35 11.5481 17.49 11.8181 17.17 11.9171C17.03 11.9622 15.78 12.3312 14.53 11.8721C13.84 11.6201 13.47 11.242 13.36 11.107C13.16 10.8909 13.06 10.6749 13 10.5308" stroke="#F5A621" stroke-width="1.5" stroke-linecap="round" stroke-linejoin="round"/>
</svg>
