<svg width="24" height="24" viewBox="0 0 24 24" fill="none" xmlns="http://www.w3.org/2000/svg">
<path d="M21 16L13 16M13 16L15 14M13 16L15 18" stroke="#F5A621" stroke-width="1.5" stroke-linecap="round" stroke-linejoin="round"/>
<path d="M17 13V4M20 6.41693C19.75 5.66976 18.92 5.09363 17.87 4.9406C16.82 4.78757 15.72 5.07563 15.11 5.66076C15.03 5.73277 14.35 6.39892 14.67 7.12808C14.87 7.58718 15.38 7.83924 16.07 8.17231C16.82 8.5414 17.04 8.47838 18.17 8.95549C19.33 9.44159 19.52 9.67565 19.61 9.80167C19.95 10.3058 19.72 10.8099 19.67 10.8999C19.35 11.5481 18.49 11.8181 18.17 11.9171C18.03 11.9622 16.78 12.3312 15.53 11.8721C14.84 11.6201 14.47 11.242 14.36 11.107C14.16 10.8909 14.06 10.6749 14 10.5308" stroke="#F5A621" stroke-width="1.5" stroke-linecap="round" stroke-linejoin="round"/>
<path d="M3 4.50078C3.79491 4.27682 4.62858 4.2258 5.44486 4.35116C6.26115 4.47652 7.04109 4.77535 7.73216 5.22752C8.42323 5.67969 9.00938 6.2747 9.45113 6.97248C9.89287 7.67026 10.18 8.4546 10.2931 9.27267C10.4061 10.0907 10.3426 10.9236 10.1068 11.715C9.87088 12.5065 9.46814 13.2382 8.92567 13.8609C8.38319 14.4836 7.71358 14.9828 6.96192 15.3249C6.21026 15.667 5.39401 15.8441 4.56816 15.8442" stroke="#F5A621" stroke-width="1.5" stroke-linecap="round" stroke-linejoin="round"/>
<path d="M5 16C6.373 15.9989 7.72603 16.3619 8.94452 17.0581C10.163 17.7544 11.2111 18.7635 12 20" stroke="#F5A621" stroke-width="1.5" stroke-linecap="round" stroke-linejoin="round"/>
</svg>
